M48
; DRILL file {KiCad (6.0.6)} date Wed Jul 20 11:36:34 2022
; FORMAT={-:-/ absolute / metric / decimal}
; #@! TF.CreationDate,2022-07-20T11:36:34+02:00
; #@! TF.GenerationSoftware,Kicad,Pcbnew,(6.0.6)
; #@! TF.FileFunction,Plated,1,2,PTH
FMAT,2
METRIC
; #@! TA.AperFunction,Plated,PTH,ViaDrill
T1C0.400
; #@! TA.AperFunction,Plated,PTH,ComponentDrill
T2C0.762
; #@! TA.AperFunction,Plated,PTH,ComponentDrill
T3C0.800
; #@! TA.AperFunction,Plated,PTH,ComponentDrill
T4C0.900
; #@! TA.AperFunction,Plated,PTH,ComponentDrill
T5C1.000
; #@! TA.AperFunction,Plated,PTH,ComponentDrill
T6C1.100
; #@! TA.AperFunction,Plated,PTH,ComponentDrill
T7C3.048
%
G90
G05
T1
X116.84Y-86.36
X117.475Y-83.82
X118.11Y-81.28
X118.745Y-74.93
X119.38Y-67.31
X119.38Y-72.39
X120.015Y-80.01
X120.65Y-67.31
X120.65Y-77.47
X121.92Y-67.31
X123.19Y-67.31
X126.365Y-86.995
X127.0Y-86.36
X127.635Y-88.265
X128.27Y-90.17
X142.24Y-93.98
X142.875Y-93.345
X142.875Y-94.769
X144.145Y-83.82
X145.994Y-84.455
X146.685Y-78.105
X147.32Y-77.47
X156.845Y-85.725
X158.75Y-85.09
T3
X111.125Y-71.12
X111.125Y-81.28
X111.125Y-84.455
X111.125Y-94.615
X141.605Y-81.28
X141.605Y-86.28
X145.415Y-80.01
X145.415Y-87.63
X145.415Y-91.44
X145.415Y-101.6
X147.955Y-80.01
X147.955Y-87.63
X149.225Y-91.44
X149.225Y-101.6
X150.495Y-80.01
X150.495Y-87.63
X153.035Y-80.01
X153.035Y-87.63
X153.035Y-91.44
X153.035Y-101.6
X155.575Y-80.01
X155.575Y-87.63
X156.845Y-91.44
X156.845Y-101.6
X158.115Y-80.01
X158.115Y-87.63
X160.655Y-80.01
X160.655Y-87.63
X160.655Y-91.44
X160.655Y-101.6
T4
X104.775Y-82.55
X104.775Y-85.09
X104.775Y-91.44
X104.775Y-93.98
T5
X112.395Y-60.96
X112.395Y-63.5
X114.935Y-60.96
X114.935Y-63.5
X114.935Y-71.755
X114.935Y-74.295
X114.935Y-76.835
X114.935Y-79.375
X114.935Y-81.915
X114.935Y-84.455
X114.935Y-86.995
X114.935Y-89.535
X114.935Y-92.075
X114.935Y-94.615
X114.935Y-97.155
X114.935Y-99.695
X117.475Y-60.96
X117.475Y-63.5
X120.015Y-60.96
X120.015Y-63.5
X122.555Y-60.96
X122.555Y-63.5
X125.095Y-60.96
X125.095Y-63.5
X127.635Y-60.96
X127.635Y-63.5
X130.175Y-60.96
X130.175Y-63.5
X130.175Y-71.755
X130.175Y-74.295
X130.175Y-76.835
X130.175Y-79.375
X130.175Y-81.915
X130.175Y-84.455
X130.175Y-86.995
X130.175Y-89.535
X130.175Y-92.075
X130.175Y-94.615
X130.175Y-97.155
X130.175Y-99.695
X132.715Y-60.96
X132.715Y-63.5
X132.715Y-71.755
X132.715Y-74.295
X132.715Y-76.835
X132.715Y-79.375
X132.715Y-81.915
X132.715Y-84.455
X132.715Y-86.995
X132.715Y-89.535
X132.715Y-92.075
X132.715Y-94.615
X132.715Y-97.155
X132.715Y-99.695
X135.255Y-60.96
X135.255Y-63.5
T6
X102.525Y-70.41
X102.525Y-76.91
X107.025Y-70.41
X107.025Y-76.91
T7
X102.87Y-57.785
X102.87Y-100.33
X167.005Y-57.785
X167.005Y-100.33
T2
G00X145.535Y-67.579
M15
G01X145.535Y-67.041
M16
G05
G00X148.254Y-57.31
M15
G01X147.816Y-57.31
M16
G05
G00X148.035Y-70.079
M15
G01X148.035Y-69.541
M16
G05
G00X153.035Y-67.579
M15
G01X153.035Y-67.041
M16
G05
G00X153.254Y-72.31
M15
G01X152.816Y-72.31
M16
G05
G00X158.254Y-57.31
M15
G01X157.816Y-57.31
M16
G05
G00X158.035Y-70.079
M15
G01X158.035Y-69.541
M16
G05
G00X160.535Y-67.579
M15
G01X160.535Y-67.041
M16
G05
T0
M30
